<svg width="400" height="268" viewBox="0 0 400 268" fill="none" xmlns="http://www.w3.org/2000/svg">
<path d="M355.001 34.0051C362.727 52.2395 368.42 71.5563 371.761 91.6757C358.696 52.3888 327.92 21.2019 288.913 7.52144C298.151 23.7774 305.654 41.1346 311.197 59.3503C287.14 23.5535 246.266 0 199.906 0C153.546 0 112.672 23.5535 88.6148 59.3503C94.1579 41.1346 101.661 23.7774 110.899 7.52144C71.8922 21.2019 41.1346 52.3888 28.0701 91.657C31.4109 71.5377 37.1033 52.2208 44.83 33.9678C17.3198 58.5104 0 94.2139 0 133.986C0 173.758 17.3198 209.462 44.83 234.004C37.0846 215.77 31.4109 196.435 28.0701 176.315C41.1346 215.583 71.8922 246.789 110.899 260.451C101.661 244.195 94.1579 226.838 88.6148 208.622C112.672 244.419 153.546 267.972 199.906 267.972C246.266 267.972 287.14 244.419 311.197 208.622C305.654 226.838 298.151 244.195 288.913 260.451C327.92 246.789 358.677 215.583 371.761 176.297C368.42 196.397 362.727 215.714 355.001 233.967C382.492 209.424 399.812 173.721 399.812 133.967C399.812 94.214 382.492 58.5104 355.001 33.9678V34.0051Z" fill="#FC4F00"/>
</svg>
